<?xml version="1.0" standalone="no"?><!DOCTYPE svg PUBLIC "-//W3C//DTD SVG 1.1//EN" "http://www.w3.org/Graphics/SVG/1.1/DTD/svg11.dtd"><svg class="icon" width="200px" height="200.00px" viewBox="0 0 1024 1024" version="1.1" xmlns="http://www.w3.org/2000/svg"><path d="M564.889581 1014.272451 354.692255 1014.272451 354.692255 569.051367 205.106378 569.051367 205.106378 364.719632 354.692255 364.719632 354.692255 252.210185c0-75.576279 23.029506-138.252761 66.598814-181.25311 42.058908-41.509393 101.617375-63.450101 172.237783-63.450101 65.304332 0 120.726595 4.946662 135.982044 7.203052l13.104459 1.938142 0 183.446056L635.174344 200.094224c-59.414181 0-70.284763 23.278169-70.284763 69.124334l0 95.501074 174.013219 0-26.920116 204.331735L564.889581 569.051367 564.889581 1014.272451zM385.391441 983.573265 534.190395 983.573265 534.190395 538.352181l150.873196 0 18.830881-142.933363L534.190395 395.418818 534.190395 269.218558c0-22.140253 2.196015-50.191122 19.312858-70.756507 16.279778-19.559475 42.995233-29.067013 81.671091-29.067013l76.740802 0L711.915146 43.543725c-23.124673-2.310625-67.456345-5.336542-118.386294-5.336542-130.329301 0-208.137411 80.001055-208.137411 214.003002L385.391441 395.418818 235.805564 395.418818l0 142.933363L385.391441 538.352181 385.391441 983.573265z" /></svg>