<svg xmlns="http://www.w3.org/2000/svg" xmlns:xlink="http://www.w3.org/1999/xlink" preserveAspectRatio="xMidYMid" width="200" height="200" viewBox="0 0 200 200">
  <defs>
    <style>
      .cls-1, .cls-3 {
        fill: #333;
      }

      .cls-1 {
        fill-rule: evenodd;
      }

      .cls-2, .cls-3 {
        font-size: 36px;
      }

      .cls-3 {
        font-family: "Arial Black";
        text-transform: uppercase;
      }
    </style>
  </defs>
  <g>
    <path d="M35.546,38.443 L35.891,38.543 L37.955,38.543 C40.087,38.543 41.996,39.031 43.682,40.005 C44.920,40.750 46.330,42.369 47.913,44.863 L60.407,64.122 L86.817,64.122 L75.498,45.860 C74.948,44.943 73.856,43.638 72.224,41.945 C70.590,40.252 69.345,39.148 68.485,38.631 C67.213,37.857 65.185,37.083 62.401,36.308 C65.877,35.649 68.614,34.818 70.610,33.814 C73.741,32.238 76.202,30.182 77.992,27.645 C79.782,25.109 80.677,22.093 80.677,18.596 C80.677,14.584 79.507,11.180 77.168,8.386 C74.829,5.591 71.751,3.678 67.932,2.647 C64.114,1.615 58.593,1.099 51.370,1.099 L35.546,1.102 L35.546,38.443 L35.546,38.443 ZM35.546,13.938 L46.159,13.824 C50.423,13.824 53.331,14.369 54.878,15.458 C56.426,16.547 57.200,18.109 57.200,20.143 C57.200,21.519 56.710,22.738 55.730,23.798 C54.750,24.858 53.485,25.517 51.938,25.775 C48.876,26.349 46.812,26.635 45.746,26.635 L35.546,26.774 L35.546,13.938 Z" class="cls-1"/>
    <path d="M110.546,173.443 L110.891,173.543 L112.955,173.543 C115.087,173.543 116.996,174.031 118.682,175.005 C119.920,175.750 121.330,177.369 122.913,179.863 L135.407,199.122 L161.817,199.122 L150.498,180.860 C149.948,179.943 148.856,178.638 147.224,176.945 C145.590,175.252 144.345,174.148 143.485,173.631 C142.213,172.857 140.185,172.083 137.401,171.308 C140.877,170.649 143.614,169.818 145.610,168.814 C148.741,167.238 151.202,165.182 152.992,162.645 C154.782,160.109 155.677,157.093 155.677,153.596 C155.677,149.584 154.507,146.180 152.168,143.386 C149.829,140.591 146.751,138.678 142.932,137.647 C139.114,136.615 133.593,136.099 126.370,136.099 L110.546,136.102 L110.546,173.443 L110.546,173.443 ZM110.546,148.938 L121.159,148.824 C125.423,148.824 128.331,149.369 129.878,150.458 C131.426,151.547 132.200,153.109 132.200,155.143 C132.200,156.519 131.710,157.738 130.730,158.798 C129.750,159.858 128.485,160.517 126.938,160.775 C123.876,161.349 121.812,161.635 120.746,161.635 L110.546,161.774 L110.546,148.938 Z" class="cls-1"/>
    <text transform="translate(97 64) scale(2.46 2.45)" class="cls-2"><tspan class="cls-3">a</tspan></text>
    <text transform="translate(29 132) scale(2.46 2.45)" class="cls-2"><tspan class="cls-3">i</tspan></text>
    <text transform="translate(95 132) scale(2.46 2.45)" class="cls-2"><tspan class="cls-3">n</tspan></text>
    <text transform="translate(28 199) scale(2.46 2.45)" class="cls-2"><tspan class="cls-3">e</tspan></text>
  </g>
</svg>
