<?xml version="1.0" standalone="no"?><!DOCTYPE svg PUBLIC "-//W3C//DTD SVG 1.1//EN" "http://www.w3.org/Graphics/SVG/1.1/DTD/svg11.dtd"><svg class="icon" width="200px" height="200.00px" viewBox="0 0 1024 1024" version="1.1" xmlns="http://www.w3.org/2000/svg"><path d="M835.906599 244.855684c-0.058328-0.007163-0.116657-0.01535-0.176009-0.021489-0.589424-0.066515-1.182942-0.121773-1.777483-0.171915-0.487094-0.042979-0.974188-0.077771-1.464351-0.109494-0.411369-0.025583-0.823761-0.053212-1.238201-0.071631-0.969071-0.042979-1.941212-0.072655-2.918469-0.072655L193.692932 244.408499c-0.979304 0-1.954515 0.028653-2.926656 0.072655-0.406253 0.017396-0.809435 0.045025-1.213641 0.069585-0.50756 0.032746-1.013073 0.069585-1.517563 0.113587-0.573051 0.048095-1.144056 0.101307-1.711991 0.164752-0.110517 0.01228-0.220011 0.027629-0.329505 0.040932-32.219819 3.744277-57.292867 30.655184-57.292867 63.261812l0 407.699516c0 32.620955 25.092491 59.572794 57.332776 63.303768 0.092098 0.011256 0.184195 0.023536 0.276293 0.034792 0.576121 0.064468 1.154289 0.11768 1.735527 0.166799 0.499373 0.044002 0.99977 0.079818 1.50119 0.11154 0.406253 0.025583 0.811482 0.053212 1.219781 0.070608 0.972141 0.044002 1.946328 0.072655 2.925632 0.072655l634.640178 0c0.977257 0 1.950422-0.028653 2.920516-0.072655 0.409322-0.01842 0.816598-0.045025 1.223874-0.070608 0.497327-0.031722 0.994654-0.067538 1.490957-0.11154 0.582261-0.049119 1.164522-0.103354 1.74269-0.167822 0.084934-0.010233 0.168846-0.021489 0.252757-0.031722 32.212656-3.722788 57.285704-30.67872 57.285704-63.305815L893.248585 308.131823C893.250632 275.485285 868.147908 248.547773 835.906599 244.855684zM647.243729 511.976464 858.307795 327.133595l0 369.728716L647.243729 511.976464zM828.33311 278.714839c8.43409 0 16.349363 3.622504 21.912056 9.518794L511.014044 585.27998 171.669336 288.233634c5.597485-5.89629 13.515828-9.518794 22.023596-9.518794L828.33311 278.714839zM163.643546 327.157131l211.133651 184.827519L163.643546 696.839799 163.643546 327.157131zM193.692932 745.286184c-8.508791 0-16.426111-3.622504-22.023596-9.522887l229.345432-200.810538 98.387821 86.128613c3.322675 2.914376 7.466042 4.330632 11.612479 4.330632 4.182252 0 8.324596-1.417279 11.647271-4.330632l98.314143-86.100984 229.269707 200.782909c-5.563716 5.900384-13.477966 9.522887-21.912056 9.522887L193.692932 745.286184z" /></svg>